<svg width="111" height="50" viewBox="0 0 111 50" fill="none" xmlns="http://www.w3.org/2000/svg">
<path fill-rule="evenodd" clip-rule="evenodd" d="M41.7445 30.495H32.688L44.9965 24.0369C47.1498 22.7868 47.7941 20.631 47.7941 17.9045C47.7941 13.8789 44.5506 11.0575 40.64 11.0575C39.5072 11.0575 37.9944 11.3314 37.045 11.8186L22.1594 19.5981L28.1965 11.0572H20.1714L2.2059 36.9011H10.2313L17.5206 26.4456L17.6679 36.9011H24.2944L24.1471 25.5621L39.7093 17.3683C39.9707 17.2427 40.2713 17.226 40.5449 17.322C40.8186 17.418 41.043 17.6187 41.1686 17.8801C41.2943 18.1415 41.311 18.4421 41.215 18.7158C41.119 18.9895 40.9182 19.2138 40.6568 19.3395L29.5955 25.1204C28.4175 25.7831 26.5035 26.5927 26.5035 28.5073L26.6503 36.9011H37.2531L41.7445 30.495ZM43.1828 37.6717C42.2181 37.6717 41.4021 38.4133 41.4021 39.42C41.4021 40.4358 42.2181 41.1774 43.1828 41.1774C44.1385 41.1774 44.9545 40.4358 44.9545 39.42C44.9545 38.4133 44.1382 37.6717 43.1828 37.6717ZM43.1802 37.9685L43.1828 37.9633C43.9763 37.9633 44.6025 38.5895 44.6025 39.4198C44.6025 40.2639 43.9763 40.8854 43.1828 40.8854C42.3808 40.8854 41.7546 40.2639 41.7546 39.4198C41.7546 38.5897 42.3777 37.9685 43.1802 37.9685Z" fill="black"/>
<path fill-rule="evenodd" clip-rule="evenodd" d="M42.8119 39.5593H43.1644L43.698 40.4358H44.0409L43.4658 39.5451C43.7628 39.508 43.9898 39.3505 43.9898 38.9884C43.9898 38.5897 43.7532 38.4133 43.2754 38.4133H42.5058V40.4358H42.8119V39.5593ZM42.8119 38.6732H43.2293C43.4425 38.6732 43.67 38.7199 43.67 38.9703C43.67 39.2807 43.4378 39.2997 43.1781 39.2997H42.8119V38.6732Z" fill="black"/>
<path d="M60.4929 15.7827C60.4588 15.4389 60.3125 15.1719 60.054 14.9815C59.7955 14.7912 59.4446 14.696 59.0014 14.696C58.7003 14.696 58.446 14.7386 58.2386 14.8239C58.0313 14.9062 57.8722 15.0213 57.7614 15.169C57.6534 15.3168 57.5994 15.4844 57.5994 15.6719C57.5938 15.8281 57.6264 15.9645 57.6974 16.081C57.7713 16.1974 57.8722 16.2983 58 16.3835C58.1278 16.4659 58.2756 16.5384 58.4432 16.6009C58.6108 16.6605 58.7898 16.7116 58.9801 16.7543L59.7642 16.9418C60.1449 17.027 60.4943 17.1406 60.8125 17.2827C61.1307 17.4247 61.4063 17.5994 61.6392 17.8068C61.8722 18.0142 62.0526 18.2585 62.1804 18.5398C62.3111 18.821 62.3778 19.1435 62.3807 19.5071C62.3778 20.0412 62.2415 20.5043 61.9716 20.8963C61.7045 21.2855 61.3182 21.5881 60.8125 21.804C60.3097 22.017 59.7031 22.1236 58.9929 22.1236C58.2884 22.1236 57.6747 22.0156 57.152 21.7997C56.6321 21.5838 56.2259 21.2642 55.9332 20.8409C55.6435 20.4148 55.4915 19.8878 55.4773 19.2599H57.2628C57.2827 19.5526 57.3665 19.7969 57.5142 19.9929C57.6648 20.1861 57.8651 20.3324 58.1151 20.4318C58.3679 20.5284 58.6534 20.5767 58.9716 20.5767C59.2841 20.5767 59.5554 20.5312 59.7855 20.4403C60.0185 20.3494 60.1989 20.223 60.3267 20.0611C60.4545 19.8991 60.5185 19.7131 60.5185 19.5028C60.5185 19.3068 60.4602 19.142 60.3438 19.0085C60.2301 18.875 60.0625 18.7614 59.8409 18.6676C59.6222 18.5739 59.3537 18.4886 59.0355 18.4119L58.0852 18.1733C57.3494 17.9943 56.7685 17.7145 56.3423 17.3338C55.9162 16.9531 55.7045 16.4403 55.7074 15.7955C55.7045 15.267 55.8452 14.8054 56.1293 14.4105C56.4162 14.0156 56.8097 13.7074 57.3097 13.4858C57.8097 13.2642 58.3778 13.1534 59.0142 13.1534C59.6619 13.1534 60.2273 13.2642 60.7102 13.4858C61.196 13.7074 61.5739 14.0156 61.8438 14.4105C62.1136 14.8054 62.2528 15.2628 62.2614 15.7827H60.4929ZM63.6218 22V13.2727H67.065C67.7269 13.2727 68.2908 13.3991 68.7567 13.652C69.2227 13.902 69.5778 14.25 69.8221 14.696C70.0692 15.1392 70.1928 15.6506 70.1928 16.2301C70.1928 16.8097 70.0678 17.321 69.8178 17.7642C69.5678 18.2074 69.2056 18.5526 68.7312 18.7997C68.2596 19.0469 67.6886 19.1705 67.0181 19.1705H64.8235V17.6918H66.7198C67.0749 17.6918 67.3675 17.6307 67.5977 17.5085C67.8306 17.3835 68.0039 17.2116 68.1175 16.9929C68.234 16.7713 68.2923 16.517 68.2923 16.2301C68.2923 15.9403 68.234 15.6875 68.1175 15.4716C68.0039 15.2528 67.8306 15.0838 67.5977 14.9645C67.3647 14.8423 67.0692 14.7812 66.7113 14.7812H65.467V22H63.6218ZM79.4112 17.6364C79.4112 18.5881 79.2308 19.3977 78.87 20.0653C78.5121 20.733 78.0234 21.2429 77.4041 21.5952C76.7876 21.9446 76.0945 22.1193 75.3246 22.1193C74.549 22.1193 73.853 21.9432 73.2365 21.5909C72.62 21.2386 72.1328 20.7287 71.7749 20.0611C71.4169 19.3935 71.2379 18.5852 71.2379 17.6364C71.2379 16.6847 71.4169 15.875 71.7749 15.2074C72.1328 14.5398 72.62 14.0312 73.2365 13.6818C73.853 13.3295 74.549 13.1534 75.3246 13.1534C76.0945 13.1534 76.7876 13.3295 77.4041 13.6818C78.0234 14.0312 78.5121 14.5398 78.87 15.2074C79.2308 15.875 79.4112 16.6847 79.4112 17.6364ZM77.5405 17.6364C77.5405 17.0199 77.4482 16.5 77.2635 16.0767C77.0817 15.6534 76.8246 15.3324 76.4922 15.1136C76.1598 14.8949 75.7706 14.7855 75.3246 14.7855C74.8786 14.7855 74.4893 14.8949 74.157 15.1136C73.8246 15.3324 73.5661 15.6534 73.3814 16.0767C73.1996 16.5 73.1087 17.0199 73.1087 17.6364C73.1087 18.2528 73.1996 18.7727 73.3814 19.196C73.5661 19.6193 73.8246 19.9403 74.157 20.1591C74.4893 20.3778 74.8786 20.4872 75.3246 20.4872C75.7706 20.4872 76.1598 20.3778 76.4922 20.1591C76.8246 19.9403 77.0817 19.6193 77.2635 19.196C77.4482 18.7727 77.5405 18.2528 77.5405 17.6364ZM80.7781 22V13.2727H84.2212C84.8803 13.2727 85.4428 13.3906 85.9087 13.6264C86.3775 13.8594 86.734 14.1903 86.9783 14.6193C87.2255 15.0455 87.3491 15.5469 87.3491 16.1236C87.3491 16.7031 87.2241 17.2017 86.9741 17.6193C86.7241 18.0341 86.3619 18.3523 85.8874 18.5739C85.4158 18.7955 84.8448 18.9062 84.1744 18.9062H81.869V17.4233H83.8761C84.2283 17.4233 84.521 17.375 84.7539 17.2784C84.9869 17.1818 85.1602 17.0369 85.2738 16.8438C85.3903 16.6506 85.4485 16.4105 85.4485 16.1236C85.4485 15.8338 85.3903 15.5895 85.2738 15.3906C85.1602 15.1918 84.9854 15.0412 84.7496 14.9389C84.5167 14.8338 84.2227 14.7812 83.8675 14.7812H82.6232V22H80.7781ZM85.4911 18.0284L87.6602 22H85.6232L83.5011 18.0284H85.4911ZM88.3207 14.794V13.2727H95.4883V14.794H92.8164V22H90.9925V14.794H88.3207ZM101.403 15.7827C101.369 15.4389 101.223 15.1719 100.964 14.9815C100.706 14.7912 100.355 14.696 99.9116 14.696C99.6104 14.696 99.3562 14.7386 99.1488 14.8239C98.9414 14.9062 98.7823 15.0213 98.6715 15.169C98.5636 15.3168 98.5096 15.4844 98.5096 15.6719C98.5039 15.8281 98.5366 15.9645 98.6076 16.081C98.6815 16.1974 98.7823 16.2983 98.9102 16.3835C99.038 16.4659 99.1857 16.5384 99.3533 16.6009C99.521 16.6605 99.6999 16.7116 99.8903 16.7543L100.674 16.9418C101.055 17.027 101.404 17.1406 101.723 17.2827C102.041 17.4247 102.316 17.5994 102.549 17.8068C102.782 18.0142 102.963 18.2585 103.091 18.5398C103.221 18.821 103.288 19.1435 103.291 19.5071C103.288 20.0412 103.152 20.5043 102.882 20.8963C102.615 21.2855 102.228 21.5881 101.723 21.804C101.22 22.017 100.613 22.1236 99.9031 22.1236C99.1985 22.1236 98.5849 22.0156 98.0621 21.7997C97.5423 21.5838 97.136 21.2642 96.8434 20.8409C96.5536 20.4148 96.4016 19.8878 96.3874 19.2599H98.1729C98.1928 19.5526 98.2766 19.7969 98.4244 19.9929C98.5749 20.1861 98.7752 20.3324 99.0252 20.4318C99.2781 20.5284 99.5636 20.5767 99.8817 20.5767C100.194 20.5767 100.466 20.5312 100.696 20.4403C100.929 20.3494 101.109 20.223 101.237 20.0611C101.365 19.8991 101.429 19.7131 101.429 19.5028C101.429 19.3068 101.37 19.142 101.254 19.0085C101.14 18.875 100.973 18.7614 100.751 18.6676C100.532 18.5739 100.264 18.4886 99.9457 18.4119L98.9954 18.1733C98.2596 17.9943 97.6786 17.7145 97.2525 17.3338C96.8263 16.9531 96.6147 16.4403 96.6175 15.7955C96.6147 15.267 96.7553 14.8054 97.0394 14.4105C97.3263 14.0156 97.7198 13.7074 98.2198 13.4858C98.7198 13.2642 99.288 13.1534 99.9244 13.1534C100.572 13.1534 101.137 13.2642 101.62 13.4858C102.106 13.7074 102.484 14.0156 102.754 14.4105C103.024 14.8054 103.163 15.2628 103.172 15.7827H101.403ZM60.4929 30.7827C60.4588 30.4389 60.3125 30.1719 60.054 29.9815C59.7955 29.7912 59.4446 29.696 59.0014 29.696C58.7003 29.696 58.446 29.7386 58.2386 29.8239C58.0313 29.9062 57.8722 30.0213 57.7614 30.169C57.6534 30.3168 57.5994 30.4844 57.5994 30.6719C57.5938 30.8281 57.6264 30.9645 57.6974 31.081C57.7713 31.1974 57.8722 31.2983 58 31.3835C58.1278 31.4659 58.2756 31.5384 58.4432 31.6009C58.6108 31.6605 58.7898 31.7116 58.9801 31.7543L59.7642 31.9418C60.1449 32.027 60.4943 32.1406 60.8125 32.2827C61.1307 32.4247 61.4063 32.5994 61.6392 32.8068C61.8722 33.0142 62.0526 33.2585 62.1804 33.5398C62.3111 33.821 62.3778 34.1435 62.3807 34.5071C62.3778 35.0412 62.2415 35.5043 61.9716 35.8963C61.7045 36.2855 61.3182 36.5881 60.8125 36.804C60.3097 37.017 59.7031 37.1236 58.9929 37.1236C58.2884 37.1236 57.6747 37.0156 57.152 36.7997C56.6321 36.5838 56.2259 36.2642 55.9332 35.8409C55.6435 35.4148 55.4915 34.8878 55.4773 34.2599H57.2628C57.2827 34.5526 57.3665 34.7969 57.5142 34.9929C57.6648 35.1861 57.8651 35.3324 58.1151 35.4318C58.3679 35.5284 58.6534 35.5767 58.9716 35.5767C59.2841 35.5767 59.5554 35.5312 59.7855 35.4403C60.0185 35.3494 60.1989 35.223 60.3267 35.0611C60.4545 34.8991 60.5185 34.7131 60.5185 34.5028C60.5185 34.3068 60.4602 34.142 60.3438 34.0085C60.2301 33.875 60.0625 33.7614 59.8409 33.6676C59.6222 33.5739 59.3537 33.4886 59.0355 33.4119L58.0852 33.1733C57.3494 32.9943 56.7685 32.7145 56.3423 32.3338C55.9162 31.9531 55.7045 31.4403 55.7074 30.7955C55.7045 30.267 55.8452 29.8054 56.1293 29.4105C56.4162 29.0156 56.8097 28.7074 57.3097 28.4858C57.8097 28.2642 58.3778 28.1534 59.0142 28.1534C59.6619 28.1534 60.2273 28.2642 60.7102 28.4858C61.196 28.7074 61.5739 29.0156 61.8438 29.4105C62.1136 29.8054 62.2528 30.2628 62.2614 30.7827H60.4929ZM63.2894 29.794V28.2727H70.457V29.794H67.7852V37H65.9613V29.794H63.2894ZM79.2589 32.6364C79.2589 33.5881 79.0785 34.3977 78.7177 35.0653C78.3597 35.733 77.8711 36.2429 77.2518 36.5952C76.6353 36.9446 75.9421 37.1193 75.1722 37.1193C74.3967 37.1193 73.7006 36.9432 73.0842 36.5909C72.4677 36.2386 71.9805 35.7287 71.6225 35.0611C71.2646 34.3935 71.0856 33.5852 71.0856 32.6364C71.0856 31.6847 71.2646 30.875 71.6225 30.2074C71.9805 29.5398 72.4677 29.0312 73.0842 28.6818C73.7006 28.3295 74.3967 28.1534 75.1722 28.1534C75.9421 28.1534 76.6353 28.3295 77.2518 28.6818C77.8711 29.0312 78.3597 29.5398 78.7177 30.2074C79.0785 30.875 79.2589 31.6847 79.2589 32.6364ZM77.3881 32.6364C77.3881 32.0199 77.2958 31.5 77.1112 31.0767C76.9293 30.6534 76.6722 30.3324 76.3398 30.1136C76.0075 29.8949 75.6183 29.7855 75.1722 29.7855C74.7262 29.7855 74.337 29.8949 74.0046 30.1136C73.6722 30.3324 73.4137 30.6534 73.229 31.0767C73.0472 31.5 72.9563 32.0199 72.9563 32.6364C72.9563 33.2528 73.0472 33.7727 73.229 34.196C73.4137 34.6193 73.6722 34.9403 74.0046 35.1591C74.337 35.3778 74.7262 35.4872 75.1722 35.4872C75.6183 35.4872 76.0075 35.3778 76.3398 35.1591C76.6722 34.9403 76.9293 34.6193 77.1112 34.196C77.2958 33.7727 77.3881 33.2528 77.3881 32.6364ZM80.6257 37V28.2727H84.0689C84.728 28.2727 85.2905 28.3906 85.7564 28.6264C86.2251 28.8594 86.5817 29.1903 86.826 29.6193C87.0732 30.0455 87.1967 30.5469 87.1967 31.1236C87.1967 31.7031 87.0717 32.2017 86.8217 32.6193C86.5717 33.0341 86.2095 33.3523 85.7351 33.5739C85.2635 33.7955 84.6925 33.9062 84.022 33.9062H81.7166V32.4233H83.7237C84.076 32.4233 84.3686 32.375 84.6016 32.2784C84.8345 32.1818 85.0078 32.0369 85.1214 31.8438C85.2379 31.6506 85.2962 31.4105 85.2962 31.1236C85.2962 30.8338 85.2379 30.5895 85.1214 30.3906C85.0078 30.1918 84.8331 30.0412 84.5973 29.9389C84.3643 29.8338 84.0703 29.7812 83.7152 29.7812H82.4709V37H80.6257ZM85.3388 33.0284L87.5078 37H85.4709L83.3487 33.0284H85.3388ZM88.5007 37V28.2727H94.3814V29.794H90.3459V31.8736H94.0788V33.3949H90.3459V35.4787H94.3984V37H88.5007Z" fill="black"/>
</svg>
