<svg width="100" height="100" viewBox="0 0 100 100" fill="none" xmlns="http://www.w3.org/2000/svg">
<path fill-rule="evenodd" clip-rule="evenodd" d="M83.489 60.9901H65.3759L89.993 48.0737C94.2995 45.5737 95.5882 41.262 95.5882 35.809C95.5882 27.7579 89.1012 22.115 81.28 22.115C79.0144 22.115 75.9888 22.6628 74.09 23.6371L44.3187 39.1962L56.3931 22.1145H40.3427L4.41179 73.8021H20.4627L35.0412 52.8912L35.3359 73.8021H48.5889L48.2942 51.1242L79.4185 34.7367C79.9413 34.4854 80.5425 34.452 81.0899 34.644C81.6372 34.8359 82.0859 35.2375 82.3373 35.7602C82.5886 36.283 82.6219 36.8842 82.43 37.4316C82.238 37.9789 81.8365 38.4276 81.3137 38.679L59.1909 50.2407C56.8351 51.5662 53.0069 53.1854 53.0069 57.0146L53.3005 73.8021H74.5061L83.489 60.9901ZM86.3657 75.3434C84.4363 75.3434 82.8042 76.8267 82.8042 78.8401C82.8042 80.8717 84.4363 82.3549 86.3657 82.3549C88.2769 82.3549 89.909 80.8717 89.909 78.8401C89.909 76.8267 88.2764 75.3434 86.3657 75.3434ZM86.3605 75.9369L86.3657 75.9266C87.9526 75.9266 89.205 77.1789 89.205 78.8396C89.205 80.5277 87.9526 81.7707 86.3657 81.7707C84.7616 81.7707 83.5092 80.5277 83.5092 78.8396C83.5092 77.1794 84.7553 75.9369 86.3605 75.9369Z" fill="black"/>
<path fill-rule="evenodd" clip-rule="evenodd" d="M85.6238 79.1187H86.3288L87.396 80.8717H88.0818L86.9317 79.0901C87.5257 79.016 87.9796 78.701 87.9796 77.9768C87.9796 77.1794 87.5065 76.8267 86.5509 76.8267H85.0116V80.8717H85.6238V79.1187ZM85.6238 77.3465H86.4585C86.885 77.3465 87.3399 77.4399 87.3399 77.9405C87.3399 78.5615 86.8756 78.5994 86.3563 78.5994H85.6238V77.3465Z" fill="black"/>
</svg>
