<svg width="300" height="300" viewBox="0 0 300 300" fill="none" xmlns="http://www.w3.org/2000/svg">
<path fill-rule="evenodd" clip-rule="evenodd" d="M250.467 182.97H196.128L269.979 144.221C282.899 136.721 286.765 123.786 286.765 107.427C286.765 83.2737 267.304 66.345 243.84 66.345C237.043 66.345 227.966 67.9885 222.27 70.9114L132.956 117.589L169.179 66.3435H121.028L13.2354 221.406H61.388L105.124 158.674L106.008 221.406H145.767L144.883 153.373L238.256 104.21C239.824 103.456 241.628 103.356 243.27 103.932C244.912 104.508 246.258 105.712 247.012 107.281C247.766 108.849 247.866 110.653 247.29 112.295C246.714 113.937 245.509 115.283 243.941 116.037L177.573 150.722C170.505 154.699 159.021 159.556 159.021 171.044L159.902 221.406H223.518L250.467 182.97ZM259.097 226.03C253.309 226.03 248.412 230.48 248.412 236.52C248.412 242.615 253.309 247.065 259.097 247.065C264.831 247.065 269.727 242.615 269.727 236.52C269.727 230.48 264.829 226.03 259.097 226.03ZM259.081 227.811L259.097 227.78C263.858 227.78 267.615 231.537 267.615 236.519C267.615 241.583 263.858 245.312 259.097 245.312C254.285 245.312 250.528 241.583 250.528 236.519C250.528 231.538 254.266 227.811 259.081 227.811Z" fill="black"/>
<path fill-rule="evenodd" clip-rule="evenodd" d="M256.871 237.356H258.986L262.188 242.615H264.245L260.795 237.27C262.577 237.048 263.939 236.103 263.939 233.93C263.939 231.538 262.519 230.48 259.653 230.48H255.035V242.615H256.871V237.356ZM256.871 232.039H259.376C260.655 232.039 262.02 232.32 262.02 233.822C262.02 235.684 260.627 235.798 259.069 235.798H256.871V232.039Z" fill="black"/>
</svg>
